HIERARCHY
ROOT Hips
{
    OFFSET 0.000000 0.000000 0.000000
    CHANNELS 6 Xposition Yposition Zposition Zrotation Xrotation Yrotation
    JOINT Spine
    {
        OFFSET -0.000000 6.925600 0.000000
        CHANNELS 3 Zrotation Xrotation Yrotation
        JOINT Spine1
        {
            OFFSET -0.000000 16.343796 0.000000
            CHANNELS 3 Zrotation Xrotation Yrotation
            JOINT Neck
            {
                OFFSET -0.000000 18.032967 0.000000
                CHANNELS 3 Zrotation Xrotation Yrotation
                JOINT Head
                {
                    OFFSET -0.000000 13.091072 1.689171
                    CHANNELS 3 Zrotation Xrotation Yrotation
                    End Site
                    {
                        OFFSET -0.000000 16.891708 0.000000
                    }
                }
            }
            JOINT LeftShoulder
            {
                OFFSET 3.336773 14.146137 -0.012206
                CHANNELS 3 Zrotation Xrotation Yrotation
                JOINT LeftArm
                {
                    OFFSET 11.765518 0.000000 0.000000
                    CHANNELS 3 Zrotation Xrotation Yrotation
                    JOINT LeftForeArm
                    {
                        OFFSET 25.163450 0.000000 0.000000
                        CHANNELS 3 Zrotation Xrotation Yrotation
                        JOINT LeftHand
                        {
                            OFFSET 21.783554 0.000000 0.000000
                            CHANNELS 3 Zrotation Xrotation Yrotation
                            End Site
                            {
                                OFFSET 12.668781 0.000000 0.000000
                            }
                        }
                    }
                }
            }
            JOINT RightShoulder
            {
                OFFSET -3.409204 14.146137 -0.012206
                CHANNELS 3 Zrotation Xrotation Yrotation
                JOINT RightArm
                {
                    OFFSET -11.765518 0.000000 0.000000
                    CHANNELS 3 Zrotation Xrotation Yrotation
                    JOINT RightForeArm
                    {
                        OFFSET -25.163450 0.000000 0.000000
                        CHANNELS 3 Zrotation Xrotation Yrotation
                        JOINT RightHand
                        {
                            OFFSET -21.783554 0.000000 0.000000
                            CHANNELS 3 Zrotation Xrotation Yrotation
                            End Site
                            {
                                OFFSET -12.668781 0.000000 0.000000
                            }
                        }
                    }
                }
            }
        }
    }
    JOINT LeftUpLeg
    {
        OFFSET 8.445854 0.000000 0.000000
        CHANNELS 3 Zrotation Xrotation Yrotation
        JOINT LeftLeg
        {
            OFFSET -0.000000 -40.674755 0.000000
            CHANNELS 3 Zrotation Xrotation Yrotation
            JOINT LeftFoot
            {
                OFFSET -0.000000 -37.111794 0.000000
                CHANNELS 3 Zrotation Xrotation Yrotation
                JOINT LeftToeBase
                {
                    OFFSET -0.000000 -5.489805 12.668781
                    CHANNELS 3 Zrotation Xrotation Yrotation
                    End Site
                    {
                        OFFSET -0.000000 0.000000 3.378341
                    }
                }
            }
        }
    }
    JOINT RightUpLeg
    {
        OFFSET -8.445854 0.000000 0.000000
        CHANNELS 3 Zrotation Xrotation Yrotation
        JOINT RightLeg
        {
            OFFSET -0.000000 -40.674755 0.000000
            CHANNELS 3 Zrotation Xrotation Yrotation
            JOINT RightFoot
            {
                OFFSET -0.000000 -37.111794 0.000000
                CHANNELS 3 Zrotation Xrotation Yrotation
                JOINT RightToeBase
                {
                    OFFSET -0.000000 -5.489805 12.668781
                    CHANNELS 3 Zrotation Xrotation Yrotation
                    End Site
                    {
                        OFFSET -0.000000 0.000000 3.378341
                    }
                }
            }
        }
    }
}
MOTION
Frames:    4
Frame Time:    0.008333
2.709655    83.019577    12.952304    -2.948576    -2.084709    1.273396    0.957210    -8.524406    -5.093873    6.355266    8.822906    -2.238652    0.872445    11.426577    35.217285    -31.712004    -4.136765    38.775352    -3.911227    8.369338    12.837647    -47.374821    39.169334    -27.430471    14.995127    -15.411930    -104.327461    7.997700    3.637744    -5.211990    -5.641762    8.106914    -6.022759    47.978909    43.696003    36.009888    -1.027343    -18.329950    104.282593    9.954552    -16.845276    2.670049    19.216002    -11.234401    4.372948    1.399321    17.767071    10.490416    -13.687767    -1.023672    16.702963    -4.104407    -2.647049    6.541371    8.751215    3.604728    3.116706    -3.423667    -0.954312    -12.274380    -4.590843    -2.501140    -0.648852    1.929217    -2.721454    -1.142806    
2.705363    83.024887    12.969440    -2.985509    -2.096826    1.291001    0.816633    -8.656523    -5.095939    6.595236    9.076380    -2.269360    0.892795    11.403739    35.182041    -31.840776    -4.142139    38.752991    -3.992436    8.294028    12.751163    -47.462822    39.138798    -27.346926    15.084456    -15.398705    -104.241920    8.066918    3.718151    -5.489766    -5.605186    8.014530    -5.998057    47.925507    43.663479    35.915089    -1.018869    -18.344625    104.309540    9.990865    -16.869720    2.660841    19.294588    -11.325789    4.352708    1.329153    17.983547    10.525023    -13.688657    -1.129294    16.656101    -4.108016    -2.654660    6.535768    8.800465    3.629922    3.095517    -3.443567    -0.960649    -12.281171    -4.565328    -2.482234    -0.636504    1.951808    -2.752046    -1.159837    
2.709798    83.023926    12.979531    -2.981842    -2.092072    1.295542    0.781228    -8.635776    -5.116580    6.655578    9.103300    -2.281728    0.815830    11.377085    35.205643    -31.808670    -4.219569    38.734619    -3.953932    8.340329    12.727469    -47.647583    39.079216    -27.235918    15.106565    -15.404350    -104.255470    8.012013    3.745414    -5.550200    -5.611587    7.960133    -6.003053    47.957306    43.748207    35.786823    -1.031398    -18.355095    104.380043    10.050812    -16.857235    2.716235    19.245960    -11.244353    4.520198    1.459125    17.813484    10.309071    -13.705336    -1.061766    16.688831    -4.112502    -2.654665    6.550611    8.796041    3.653218    3.086909    -3.446262    -1.012111    -12.003643    -4.592088    -2.456449    -0.914464    1.927294    -2.713710    -1.152003    
2.712662    83.023422    12.988559    -2.983931    -2.091608    1.297397    0.973452    -8.346887    -5.008956    6.451113    8.631012    -2.206939    0.751278    11.505958    35.157436    -31.714962    -4.343156    38.631721    -3.867870    8.511214    12.728120    -47.525894    39.103943    -27.275997    15.050909    -15.423147    -104.362282    7.970278    3.693308    -5.526150    -5.691035    8.147005    -6.296374    48.004166    43.961643    36.006973    -0.985898    -18.309929    104.308128    10.572659    -16.849972    2.801598    19.248281    -11.246724    4.519864    1.452708    17.829147    10.300073    -13.698204    -1.089238    16.702044    -4.090853    -2.623759    6.550218    8.795502    3.634489    3.082429    -3.441294    -0.952183    -12.277905    -4.573986    -2.507581    -0.641680    1.933723    -2.717007    -1.168054    
